# xmcd
#
# Track frame offsets:
# 150
# 18032
# 41408
# 64719
# 80787
# 99096
# 116915
# 136637
# 155522
# 173866
# 189497
# 214091
# 232208
# 253724
# 269234
# 291975
# 312533
# 333413
#
# Disc length: 4639 seconds
#
#
# Revision: 0
# Processed by: cddbd v1.5.1PL2 Copyright (c) Steve Scherf et al.
# Submitted via: FreeRIP 2.944 
#
DISCID=0b121d12
DTITLE=tr
DYEAR=1999
DGENRE=R&B
TTITLE0=ö
TTITLE1=ö
TTITLE2=ö
TTITLE3=ö
TTITLE4=ö
TTITLE5=ö
TTITLE6=ö
TTITLE7=ö
TTITLE8=ö
TTITLE9=ö
TTITLE10=ö
TTITLE11=ö
TTITLE12=ö
TTITLE13=ö
TTITLE14=ö
TTITLE15=tr
TTITLE16=ö
TTITLE17=ö
EXTD=
EXTT0=
EXTT1=
EXTT2=
EXTT3=
EXTT4=
EXTT5=
EXTT6=
EXTT7=
EXTT8=
EXTT9=
EXTT10=
EXTT11=
EXTT12=
EXTT13=
EXTT14=
EXTT15=
EXTT16=
EXTT17=
PLAYORDER=
